<svg width="560" height="624" viewBox="0 0 560 624" fill="none" xmlns="http://www.w3.org/2000/svg">
<path d="M478.678 123.731L481.624 195.807L501.026 259.199L474.948 291.353L387.967 283.206L377.24 274.506L342.52 244.065L378.021 212.743L404.099 180.589L427.414 151.842L478.678 123.731Z" fill="black"/>
<path d="M406.484 65.1797L335.353 77.1784L269.321 71.2815L243.243 103.436L269.172 186.861L279.899 195.561L316.853 223.249L340.17 182.045L366.248 149.891L389.562 121.144L406.484 65.1797Z" fill="black"/>
<ellipse cx="370.479" cy="185.635" rx="79.4161" ry="164" transform="rotate(39.0426 370.479 185.635)" fill="#AAA9AD"/>
<rect x="308.798" y="135.611" width="159" height="373" transform="rotate(39.0426 308.798 135.611)" fill="#AAA9AD"/>
<path fill-rule="evenodd" clip-rule="evenodd" d="M457.458 157.078C458.006 156.434 458.549 155.781 459.086 155.119C475.316 114.259 479.512 78.339 465.92 67.315C452.327 56.291 415.124 68.6148 381.418 92.1292C380.881 92.7914 380.354 93.4573 379.837 94.1267L457.458 157.078Z" fill="black"/>
<path fill-rule="evenodd" clip-rule="evenodd" d="M196.826 526.083L198.088 526.737L253.199 582.166L293.428 532.881L299.33 401.714L297.959 402.183L196.826 526.083Z" fill="black"/>
<path fill-rule="evenodd" clip-rule="evenodd" d="M73.8276 426.48L72.9253 425.382L7.25052 382.999L47.0949 333.403L174.168 300.359L173.995 301.798L73.8276 426.48Z" fill="black"/>
<path d="M178.886 359.859L159.005 401.275L113.457 457.436L105.188 450.73L96.3699 443.579L141.918 387.417L178.886 359.859Z" fill="black"/>
<path d="M239.467 408.991L219.586 450.407L174.038 506.569L165.769 499.862L156.951 492.711L202.499 436.549L239.467 408.991Z" fill="black"/>
<path d="M138.603 549.839C109.898 580.758 84.4183 605.798 92.4929 601.405C79.3762 617.562 112.537 555.802 121.523 535.973C140.648 512.415 159.975 496.422 164.691 500.251C169.408 504.08 157.728 526.281 138.603 549.839Z" fill="#FF3D00" fill-opacity="0.9"/>
<path d="M139.545 541.859C126.549 557.868 111.577 572.741 96.587 591.205C86.4436 603.7 123.876 548.666 130.228 534.296C146.631 514.091 159.288 498.49 163.951 502.275C168.614 506.06 154.998 522.824 139.545 541.859Z" fill="#FAFF00" fill-opacity="0.85"/>
<path d="M145.751 516.62C150.803 524.36 111.476 567.87 119.961 560.59C107.258 576.239 153.49 522.16 156.346 518.642C160.758 513.207 160.529 506.581 158.619 505.03C156.709 503.48 149.286 512.266 145.751 516.62Z" fill="#FF0000" fill-opacity="0.95"/>
<path d="M150.772 523.269C144.729 521.895 110.425 567.267 116.174 558.181C103.843 573.37 146.467 519.053 149.239 515.638C153.521 510.363 158.715 508.329 159.921 509.308C161.128 510.287 154.203 519.043 150.772 523.269Z" fill="#FFE600" fill-opacity="0.75"/>
<path d="M146.066 535.413C137.68 550.502 115.38 565.979 116.384 564.839C84.8474 606.859 135.922 540.771 136.713 517.585C148.135 511.448 159.687 496.306 164.403 500.135C169.12 503.964 161.421 522.048 146.066 535.413Z" fill="#FFB800" fill-opacity="0.6"/>
<path d="M101.2 587.506C96.9477 586.76 90.2469 599.156 90.5882 598.752C87.5511 602.493 96.7474 588.231 98.8711 585.615C103.774 582.604 107.506 576.239 108.324 576.904C109.143 577.569 102.791 582.517 101.2 587.506Z" fill="#FF0F00" fill-opacity="0.7"/>
<path d="M81.3697 608.76C82.9737 612.769 72.2198 621.874 72.5447 621.457C69.5077 625.198 81.5751 613.267 83.6988 610.651C85.6376 605.234 91.0996 600.274 90.281 599.609C89.4624 598.945 85.9246 606.178 81.3697 608.76Z" fill="#FF0F00" fill-opacity="0.5"/>
<path d="M93.9936 588.45C99.5247 587.621 114.652 564.845 113.989 565.645C119.958 558.292 100.497 585.199 96.3227 590.341C88.1167 597.42 79.9467 609.252 79.1281 608.588C78.3095 607.923 89.4362 597.093 93.9936 588.45Z" fill="#FFF500" fill-opacity="0.7"/>
<path d="M98.7124 595.612C93.6615 596.17 82.6576 615.902 83.167 615.213C78.6009 621.549 93.0856 598.289 96.2786 593.858C102.971 587.838 108.978 577.597 109.833 578.214C110.689 578.83 101.783 588.086 98.7124 595.612Z" fill="#FF7A00" fill-opacity="0.7"/>
<path d="M59.7051 488.365C35.3459 522.811 16.0769 552.894 18.7168 544.089C5.60011 560.246 59.2266 515.1 76.7854 502.231C95.91 478.673 107.59 456.471 102.873 452.642C98.1569 448.813 78.8297 464.807 59.7051 488.365Z" fill="#FF3D00" fill-opacity="0.9"/>
<path d="M67.3215 485.803C54.3253 501.812 42.8468 519.521 27.8573 537.986C17.7139 550.481 63.8801 502.537 76.638 493.367C93.0404 473.162 105.707 457.568 101.044 453.783C96.3814 449.997 82.7742 466.768 67.3215 485.803Z" fill="#FAFF00" fill-opacity="0.85"/>
<path d="M90.7466 474.542C82.133 471.189 47.6345 518.619 53.0147 508.818C40.3113 524.467 83.7342 468.107 86.5903 464.589C91.0022 459.155 97.5341 458.017 99.4441 459.568C101.354 461.118 94.281 470.189 90.7466 474.542Z" fill="#FF0000" fill-opacity="0.95"/>
<path d="M83.2073 470.995C85.7941 476.627 48.4409 519.523 56.1509 512.03C43.8206 527.219 88.2182 474.342 90.9903 470.927C95.2726 465.652 96.1963 460.151 94.9899 459.172C93.7836 458.193 86.6379 466.769 83.2073 470.995Z" fill="#FFE600" fill-opacity="0.75"/>
<path d="M72.2898 478.097C59.246 489.404 48.6827 514.409 49.5919 513.193C14.95 552.692 69.1303 489.125 91.6595 483.586C95.3178 471.147 107.763 456.729 103.046 452.901C98.3293 449.072 82.2132 460.323 72.2898 478.097Z" fill="#FFB800" fill-opacity="0.6"/>
<path d="M30.5297 532.711C32.1337 536.719 21.3797 545.825 21.7047 545.408C18.6677 549.149 30.7351 537.218 32.8588 534.602C34.7975 529.184 40.2596 524.224 39.441 523.56C38.6224 522.895 35.0846 530.129 30.5297 532.711Z" fill="#FF0F00" fill-opacity="0.7"/>
<path d="M13.8046 556.486C9.55206 555.74 2.8512 568.136 3.19252 567.732C0.155482 571.473 9.35175 557.211 11.4755 554.595C16.3785 551.585 20.1102 545.22 20.9288 545.884C21.7474 546.549 15.3952 551.498 13.8046 556.486Z" fill="#FF0F00" fill-opacity="0.5"/>
<path d="M31.0868 539.958C30.7613 534.374 49.9417 514.889 49.2951 515.702C55.2644 508.349 32.9318 532.925 28.7576 538.067C23.5159 547.553 13.6156 557.98 14.4341 558.644C15.2527 559.309 23.5651 546.194 31.0868 539.958Z" fill="#FFF500" fill-opacity="0.7"/>
<path d="M23.1073 536.812C23.6 541.869 6.55052 556.694 7.11992 556.053C1.8581 561.824 21.6447 542.868 25.3241 538.833C29.8403 531.046 38.6281 523.063 37.849 522.352C37.0698 521.642 29.8417 532.259 23.1073 536.812Z" fill="#FF7A00" fill-opacity="0.7"/>
<path fill-rule="evenodd" clip-rule="evenodd" d="M367.697 98.3175C363.818 101.472 359.911 104.747 355.988 108.133L448.61 183.324C451.098 178.774 453.481 174.262 455.751 169.801L367.697 98.3175ZM340.892 121.638C344.653 118.156 348.413 114.762 352.162 111.466L446.152 187.768C443.714 192.129 441.182 196.519 438.562 200.928L340.892 121.638ZM337.203 125.084C333.572 128.502 329.943 132.002 326.326 135.574L427.974 218.093C430.714 213.808 433.379 209.527 435.964 205.259L337.203 125.084ZM312.251 149.909C315.736 146.251 319.242 142.653 322.763 139.121L425.247 222.319C422.527 226.5 419.737 230.68 416.883 234.849L312.251 149.909ZM308.807 153.553C305.394 157.19 302.005 160.884 298.649 164.627L405.307 251.213C408.273 247.154 411.184 243.072 414.034 238.977L308.807 153.553ZM285.514 179.724C288.743 175.896 292.015 172.108 295.321 168.365L402.337 255.242C399.359 259.251 396.328 263.235 393.248 267.184L285.514 179.724Z" fill="black"/>
</svg>
