<svg width="1244" height="982" viewBox="0 0 1244 982" fill="none" xmlns="http://www.w3.org/2000/svg">
<path d="M880.115 246.357L850.362 328.54L844.464 404.325L798.163 435.279L697.051 407.932L688.136 395.85L660.339 354.163L717.618 326.115L763.919 295.161L805.314 267.486L880.115 246.357Z" fill="black"/>
<path d="M820.123 165.048L728.813 163.803L651.92 143.367L605.619 174.322L598.334 274.139L607.248 286.221L639.011 325.256L686.164 283.486L732.465 252.531L773.86 224.856L820.123 165.048Z" fill="black"/>
<ellipse rx="97.1457" ry="200.535" transform="matrix(0.527617 0.715086 -0.914623 0.611473 721.05 293.865)" fill="#AAA9AD"/>
<rect width="194.497" height="456.096" transform="matrix(0.527617 0.715086 -0.914623 0.611473 669.795 224.397)" fill="#AAA9AD"/>
<path fill-rule="evenodd" clip-rule="evenodd" d="M839.126 279.655C840.08 279.043 841.032 278.42 841.982 277.785C880.441 234.925 902.107 195.15 890.813 179.844C879.52 164.539 828.966 170.741 777.453 190.334C776.504 190.968 775.565 191.609 774.637 192.256L839.126 279.655Z" fill="black"/>
<path fill-rule="evenodd" clip-rule="evenodd" d="M354.325 642.956L355.558 643.971L396.387 718.173L467.679 670.772L535.437 523.561L533.525 523.811L354.325 642.956Z" fill="black"/>
<path fill-rule="evenodd" clip-rule="evenodd" d="M252.069 504.637L251.481 503.188L191.885 441.55L262.86 393.717L431.363 382.777L430.469 384.405L252.069 504.637Z" fill="black"/>
<path d="M409.534 451.105L366.425 493.833L285.555 547.899L278.683 538.586L271.356 528.655L352.226 474.589L409.534 451.105Z" fill="black"/>
<path d="M459.875 519.334L416.766 562.062L335.896 616.128L329.025 606.815L321.697 596.884L402.567 542.818L459.875 519.334Z" fill="black"/>
<path d="M273.177 657.713C224.28 686.721 181.987 709.749 193.753 706.46C170.471 722.012 238.993 659.028 258.99 638.461C292.935 615.786 323.629 601.714 327.546 607.03C331.464 612.346 307.122 635.038 273.177 657.713Z" fill="#FF3D00" fill-opacity="0.9"/>
<path d="M278 648.877C254.933 664.286 230.008 677.998 203.402 695.77C185.398 707.797 255.962 653.315 270.262 638.376C299.375 618.929 321.846 603.911 325.719 609.167C329.592 614.422 305.428 630.556 278 648.877Z" fill="#FAFF00" fill-opacity="0.85"/>
<path d="M297.146 621.607C299.66 631.42 232.137 672.464 245.732 665.995C223.184 681.056 303.917 629.49 308.986 626.104C316.817 620.873 319.602 613.326 318.016 611.173C316.429 609.02 303.419 617.417 297.146 621.607Z" fill="#FF0000" fill-opacity="0.95"/>
<path d="M300.128 630.179C293.475 627.364 231.149 671.563 242.278 662.479C220.393 677.098 296.884 624.51 301.805 621.223C309.406 616.146 316.608 614.926 317.61 616.286C318.612 617.645 306.217 626.111 300.128 630.179Z" fill="#FFE600" fill-opacity="0.75"/>
<path d="M288.841 642.941C271.758 658.27 237.719 671.138 239.455 670.057C182.014 711.04 274.134 646.892 285.802 620.816C302.41 616.251 323.335 601.523 327.253 606.839C331.17 612.155 313.531 631.017 288.841 642.941Z" fill="#FFB800" fill-opacity="0.6"/>
<path d="M210.674 692.545C205.891 690.815 192.084 703.446 192.682 703.061C187.292 706.661 204.97 692.438 208.739 689.92C216.042 687.534 223.483 681.109 224.163 682.032C224.843 682.954 214.897 687.231 210.674 692.545Z" fill="#FF0F00" fill-opacity="0.7"/>
<path d="M176.942 712.466C177.024 717.337 159.85 725.4 160.435 724.996C155.044 728.597 175.107 717.609 178.877 715.091C183.718 709.365 192.595 704.889 191.915 703.967C191.236 703.044 183.627 710.493 176.942 712.466Z" fill="#FF0F00" fill-opacity="0.5"/>
<path d="M201.548 692.112C208.601 692.326 237.364 669.703 236.195 670.471C246.79 663.393 210.892 689.788 203.483 694.737C190.317 701.038 174.999 712.726 174.319 711.803C173.639 710.881 192.06 700.943 201.548 692.112Z" fill="#FFE600" fill-opacity="0.7"/>
<path d="M203.928 701.201C197.581 700.779 175.195 720.817 176.128 720.143C167.694 726.362 195.907 703.057 201.804 698.709C212.655 693.29 224.63 682.952 225.377 683.828C226.123 684.704 211.109 693.323 203.928 701.201Z" fill="#FF7A00" fill-opacity="0.7"/>
<path d="M206.453 571.698C161.165 605.605 124.031 635.634 131.283 626.219C108.001 641.771 193.522 601.855 220.64 590.95C254.585 568.275 278.927 545.584 275.009 540.268C271.091 534.951 240.398 549.023 206.453 571.698Z" fill="#FF3D00" fill-opacity="0.9"/>
<path d="M216.82 570.387C193.752 585.795 171.729 603.445 145.124 621.217C127.12 633.244 204.938 588.607 224.558 580.888C253.671 561.44 276.15 546.433 272.277 541.177C268.404 535.921 244.247 552.065 216.82 570.387Z" fill="#FAFF00" fill-opacity="0.85"/>
<path d="M250.268 562.525C241.431 556.935 177.919 603.421 188.935 593.451C166.387 608.513 244.786 553.781 249.855 550.394C257.686 545.163 266.088 545.237 267.674 547.39C269.261 549.543 256.541 558.334 250.268 562.525Z" fill="#FF0000" fill-opacity="0.95"/>
<path d="M242.817 556.939C243.333 563.852 178.473 604.613 191.232 597.74C169.346 612.359 247.312 561.771 252.232 558.484C259.833 553.407 263.488 547.374 262.486 546.014C261.484 544.654 248.906 552.871 242.817 556.939Z" fill="#FFE600" fill-opacity="0.75"/>
<path d="M226.371 562.7C205.419 572.779 181.128 598.876 182.786 597.689C122.765 635.171 217.466 574.523 247.19 572.95C257.348 559.634 279.015 545.912 275.098 540.596C271.18 535.279 246.549 544.654 226.371 562.7Z" fill="#FFB800" fill-opacity="0.6"/>
<path d="M150.783 615.804C150.865 620.675 133.691 628.739 134.276 628.334C128.885 631.935 148.948 620.948 152.718 618.43C157.559 612.703 166.436 608.228 165.757 607.305C165.077 606.383 157.468 613.832 150.783 615.804Z" fill="#FF0F00" fill-opacity="0.7"/>
<path d="M119.631 639.226C114.848 637.495 101.041 650.127 101.639 649.741C96.2486 653.342 113.927 639.118 117.696 636.6C124.999 634.215 132.44 627.79 133.12 628.712C133.8 629.635 123.854 633.912 119.631 639.226Z" fill="#FF0F00" fill-opacity="0.5"/>
<path d="M148.106 624.122C150.294 617.735 182.424 599.681 181.269 600.467C191.864 593.389 153.581 616.548 146.172 621.497C135.469 631.139 118.713 640.877 119.393 641.799C120.073 642.722 136.156 629.612 148.106 624.122Z" fill="#FFE600" fill-opacity="0.7"/>
<path d="M139.939 618.899C138.196 624.725 110.789 637.949 111.771 637.343C102.76 642.777 135.377 625.448 141.678 621.648C150.721 613.777 165.006 606.573 164.395 605.607C163.784 604.641 150.162 615.15 139.939 618.899Z" fill="#FF7A00" fill-opacity="0.7"/>
<path fill-rule="evenodd" clip-rule="evenodd" d="M758.032 194.491C751.905 197.25 745.689 200.139 739.403 203.149L816.315 307.519C821.413 302.894 826.366 298.29 831.16 293.72L758.032 194.491ZM714.961 215.289C721.104 212.131 727.204 209.075 733.246 206.126L811.296 312.038C806.342 316.463 801.261 320.904 796.065 325.346L714.961 215.289ZM708.919 218.42C702.962 221.533 696.97 224.736 690.959 228.025L775.366 342.564C780.649 338.287 785.84 333.998 790.929 329.707L708.919 218.42ZM667.365 241.315C673.256 237.902 679.146 234.561 685.021 231.298L770.123 346.78C764.911 350.944 759.617 355.092 754.249 359.215L667.365 241.315ZM661.526 244.722C655.731 248.127 649.939 251.601 644.163 255.136L732.73 375.32C738.181 371.345 743.577 367.333 748.905 363.293L661.526 244.722ZM621.35 269.485C627.011 265.827 632.706 262.221 638.421 258.675L727.285 379.263C721.843 383.179 716.348 387.055 710.81 390.881L621.35 269.485Z" fill="black"/>
</svg>
